<svg xmlns="http://www.w3.org/2000/svg" viewBox="0 0 512 512">
  <defs>
    <linearGradient id="bg" x1="0" y1="0" x2="0" y2="1">
      <stop offset="0" stop-color="#1e1e1e"/>
      <stop offset="1" stop-color="#121212"/>
    </linearGradient>
  </defs>

  <!-- App tile -->
  <rect x="8" y="8" width="496" height="496" rx="112" fill="url(#bg)" stroke="#2e2e2e" stroke-width="4"/>

  <!-- GNSS accuracy rings -->
  <g fill="none" stroke="#03dac6">
    <circle cx="256" cy="210" r="150" stroke-width="10" opacity="0.38"/>
    <circle cx="256" cy="210" r="112" stroke-width="10" opacity="0.6"/>
    <circle cx="256" cy="210" r="76" stroke-width="10" opacity="0.9"/>
  </g>

  <!-- Location pin -->
  <path d="M256 360 C256 360 178 252 178 198 A78 78 0 1 1 334 198 C334 252 256 360 256 360 Z" fill="#bb86fc"/>
  <circle cx="256" cy="198" r="32" fill="#ffffff"/>
  <circle cx="256" cy="198" r="13" fill="#03dac6"/>

  <!-- Benchmark bars -->
  <g>
    <rect x="193" y="420" width="34" height="26" rx="8" fill="#555555"/>
    <rect x="239" y="404" width="34" height="42" rx="8" fill="#bb86fc"/>
    <rect x="285" y="388" width="34" height="58" rx="8" fill="#03dac6"/>
  </g>
</svg>
